<?xml version="1.0" encoding="utf-8"?>
<!-- Generator: Adobe Illustrator 22.0.1, SVG Export Plug-In . SVG Version: 6.00 Build 0)  -->
<svg version="1.1" id="Layer_1" xmlns="http://www.w3.org/2000/svg" xmlns:xlink="http://www.w3.org/1999/xlink" x="0px" y="0px"
	 viewBox="0 0 58 58" style="enable-background:new 0 0 58 58;" xml:space="preserve">
<style type="text/css">
	.st0{fill:#27A8E0;}
	.st1{fill:#88C057;}
</style>
<rect class="st0" width="58" height="58"/>
<g>
	<path class="st1" d="M46.8,47.2c0-2.5-1.4-4.7-3.6-5.8l-7.7-3.9c-1-0.5-1.6-1.5-1.6-2.6v-3c0.2-0.2,0.5-0.6,0.7-0.9
		c1.1-1.5,1.9-3.1,2.4-4.9c1-0.3,1.7-1.2,1.7-2.3v-3.2c0-0.7-0.3-1.4-0.8-1.8v-4.7c0,0,1-7.3-8.9-7.3c-9.9,0-8.9,7.3-8.9,7.3v4.7
		c-0.5,0.4-0.8,1.1-0.8,1.8v3.2c0,0.9,0.4,1.6,1.1,2c0.8,3.5,2.9,6.1,2.9,6.1v3c0,1.1-0.6,2.1-1.5,2.6l-7.2,3.9
		c-2.1,1.1-3.4,3.3-3.4,5.7v2.6c0,2.2,8,4.1,17.8,4.1c9.9,0,17.8-1.8,17.8-4.1V47.2z M46.8,47.2"/>
</g>
</svg>
